<mxfile host="app.diagrams.net" modified="2020-04-26T13:25:43.280Z" agent="5.0 (Macintosh; Intel Mac OS X 10_15_4) AppleWebKit/537.36 (KHTML, like Gecko) Chrome/81.0.4044.122 Safari/537.36" etag="YkByroPcqe8gWdXkbecw" version="13.0.1" type="github">
  <diagram id="m9hpuPC8LgDULNpHJMkN" name="Page-1">
    <mxGraphModel dx="1253" dy="2661" grid="1" gridSize="10" guides="1" tooltips="1" connect="1" arrows="1" fold="1" page="1" pageScale="1" pageWidth="2336" pageHeight="1654" math="0" shadow="0">
      <root>
        <mxCell id="0" />
        <mxCell id="1" parent="0" />
        <mxCell id="hvJ3UXX3cbDrTFkvKnQH-9" value="" style="edgeStyle=orthogonalEdgeStyle;rounded=0;orthogonalLoop=1;jettySize=auto;html=1;" parent="1" source="hvJ3UXX3cbDrTFkvKnQH-1" edge="1">
          <mxGeometry relative="1" as="geometry">
            <mxPoint x="180" y="290" as="targetPoint" />
          </mxGeometry>
        </mxCell>
        <mxCell id="hvJ3UXX3cbDrTFkvKnQH-1" value="Actor" style="shape=umlActor;verticalLabelPosition=bottom;labelBackgroundColor=#ffffff;verticalAlign=top;html=1;outlineConnect=0;fillColor=#f5f5f5;strokeColor=#666666;fontColor=#333333;" parent="1" vertex="1">
          <mxGeometry x="70" y="260" width="30" height="60" as="geometry" />
        </mxCell>
        <mxCell id="hvJ3UXX3cbDrTFkvKnQH-12" value="" style="edgeStyle=orthogonalEdgeStyle;rounded=0;orthogonalLoop=1;jettySize=auto;html=1;" parent="1" edge="1">
          <mxGeometry relative="1" as="geometry">
            <mxPoint x="290" y="290" as="sourcePoint" />
            <mxPoint x="370" y="290" as="targetPoint" />
          </mxGeometry>
        </mxCell>
        <mxCell id="hvJ3UXX3cbDrTFkvKnQH-16" value="" style="edgeStyle=orthogonalEdgeStyle;rounded=0;orthogonalLoop=1;jettySize=auto;html=1;entryX=0;entryY=0.5;entryDx=0;entryDy=0;entryPerimeter=0;" parent="1" source="hvJ3UXX3cbDrTFkvKnQH-14" target="hvJ3UXX3cbDrTFkvKnQH-23" edge="1">
          <mxGeometry relative="1" as="geometry">
            <mxPoint x="670" y="290" as="targetPoint" />
          </mxGeometry>
        </mxCell>
        <mxCell id="hvJ3UXX3cbDrTFkvKnQH-19" value="" style="edgeStyle=orthogonalEdgeStyle;rounded=0;orthogonalLoop=1;jettySize=auto;html=1;entryX=0.5;entryY=0;entryDx=0;entryDy=0;entryPerimeter=0;" parent="1" source="hvJ3UXX3cbDrTFkvKnQH-14" target="hvJ3UXX3cbDrTFkvKnQH-31" edge="1">
          <mxGeometry relative="1" as="geometry">
            <mxPoint x="420.0000000000002" y="490" as="targetPoint" />
            <Array as="points" />
          </mxGeometry>
        </mxCell>
        <mxCell id="hvJ3UXX3cbDrTFkvKnQH-14" value="Check Number Profile" style="strokeWidth=2;html=1;shape=mxgraph.flowchart.decision;whiteSpace=wrap;fillColor=#f8cecc;strokeColor=#b85450;" parent="1" vertex="1">
          <mxGeometry x="370" y="240" width="100" height="100" as="geometry" />
        </mxCell>
        <mxCell id="hvJ3UXX3cbDrTFkvKnQH-17" value="Found" style="text;html=1;align=center;verticalAlign=middle;resizable=0;points=[];autosize=1;" parent="1" vertex="1">
          <mxGeometry x="520" y="290" width="50" height="20" as="geometry" />
        </mxCell>
        <mxCell id="hvJ3UXX3cbDrTFkvKnQH-20" value="Not Found" style="text;html=1;align=center;verticalAlign=middle;resizable=0;points=[];autosize=1;rotation=90;" parent="1" vertex="1">
          <mxGeometry x="400" y="400" width="70" height="20" as="geometry" />
        </mxCell>
        <mxCell id="hvJ3UXX3cbDrTFkvKnQH-21" value="Create Meeting" style="strokeWidth=2;html=1;shape=mxgraph.flowchart.start_2;whiteSpace=wrap;fillColor=#f5f5f5;strokeColor=#666666;fontColor=#333333;" parent="1" vertex="1">
          <mxGeometry x="190" y="240" width="100" height="100" as="geometry" />
        </mxCell>
        <mxCell id="hvJ3UXX3cbDrTFkvKnQH-35" value="" style="edgeStyle=orthogonalEdgeStyle;rounded=0;orthogonalLoop=1;jettySize=auto;html=1;entryX=0;entryY=0.5;entryDx=0;entryDy=0;entryPerimeter=0;" parent="1" source="hvJ3UXX3cbDrTFkvKnQH-23" target="hvJ3UXX3cbDrTFkvKnQH-39" edge="1">
          <mxGeometry relative="1" as="geometry">
            <mxPoint x="820" y="290" as="targetPoint" />
          </mxGeometry>
        </mxCell>
        <mxCell id="hvJ3UXX3cbDrTFkvKnQH-45" value="&lt;b&gt;true&lt;/b&gt;" style="edgeLabel;html=1;align=center;verticalAlign=middle;resizable=0;points=[];" parent="hvJ3UXX3cbDrTFkvKnQH-35" vertex="1" connectable="0">
          <mxGeometry x="-0.0884" relative="1" as="geometry">
            <mxPoint as="offset" />
          </mxGeometry>
        </mxCell>
        <mxCell id="hvJ3UXX3cbDrTFkvKnQH-47" style="edgeStyle=orthogonalEdgeStyle;rounded=0;orthogonalLoop=1;jettySize=auto;html=1;exitX=0.5;exitY=1;exitDx=0;exitDy=0;exitPerimeter=0;entryX=0.5;entryY=0;entryDx=0;entryDy=0;entryPerimeter=0;" parent="1" source="hvJ3UXX3cbDrTFkvKnQH-23" target="hvJ3UXX3cbDrTFkvKnQH-46" edge="1">
          <mxGeometry relative="1" as="geometry" />
        </mxCell>
        <mxCell id="hvJ3UXX3cbDrTFkvKnQH-23" value="canHost=true?" style="strokeWidth=2;html=1;shape=mxgraph.flowchart.decision;whiteSpace=wrap;fillColor=#f8cecc;strokeColor=#b85450;" parent="1" vertex="1">
          <mxGeometry x="610" y="240" width="100" height="100" as="geometry" />
        </mxCell>
        <mxCell id="hvJ3UXX3cbDrTFkvKnQH-24" value="Profiles" style="strokeWidth=2;html=1;shape=mxgraph.flowchart.database;whiteSpace=wrap;" parent="1" vertex="1">
          <mxGeometry x="390" width="60" height="60" as="geometry" />
        </mxCell>
        <object label="Profiles" sad="das" id="hvJ3UXX3cbDrTFkvKnQH-26">
          <mxCell style="swimlane;fontStyle=0;childLayout=stackLayout;horizontal=1;startSize=26;fillColor=none;horizontalStack=0;resizeParent=1;resizeParentMax=0;resizeLast=0;collapsible=1;marginBottom=0;" parent="1" vertex="1">
            <mxGeometry x="460" y="10" width="240" height="104" as="geometry">
              <mxRectangle x="460" y="10" width="70" height="26" as="alternateBounds" />
            </mxGeometry>
          </mxCell>
        </object>
        <mxCell id="hvJ3UXX3cbDrTFkvKnQH-27" value="+ phone: string (E.164 format)" style="text;strokeColor=none;fillColor=none;align=left;verticalAlign=top;spacingLeft=4;spacingRight=4;overflow=hidden;rotatable=0;points=[[0,0.5],[1,0.5]];portConstraint=eastwest;" parent="hvJ3UXX3cbDrTFkvKnQH-26" vertex="1">
          <mxGeometry y="26" width="240" height="26" as="geometry" />
        </mxCell>
        <mxCell id="hvJ3UXX3cbDrTFkvKnQH-28" value="+ canHost: boolean" style="text;strokeColor=none;fillColor=none;align=left;verticalAlign=top;spacingLeft=4;spacingRight=4;overflow=hidden;rotatable=0;points=[[0,0.5],[1,0.5]];portConstraint=eastwest;" parent="hvJ3UXX3cbDrTFkvKnQH-26" vertex="1">
          <mxGeometry y="52" width="240" height="26" as="geometry" />
        </mxCell>
        <mxCell id="hvJ3UXX3cbDrTFkvKnQH-29" value="+ rooms: Array[PotkalRoom]" style="text;strokeColor=none;fillColor=none;align=left;verticalAlign=top;spacingLeft=4;spacingRight=4;overflow=hidden;rotatable=0;points=[[0,0.5],[1,0.5]];portConstraint=eastwest;" parent="hvJ3UXX3cbDrTFkvKnQH-26" vertex="1">
          <mxGeometry y="78" width="240" height="26" as="geometry" />
        </mxCell>
        <mxCell id="hvJ3UXX3cbDrTFkvKnQH-30" value="+ invitations: Array[PotkalInvitation]" style="text;strokeColor=none;fillColor=none;align=left;verticalAlign=top;spacingLeft=4;spacingRight=4;overflow=hidden;rotatable=0;points=[[0,0.5],[1,0.5]];portConstraint=eastwest;" parent="1" vertex="1">
          <mxGeometry x="460" y="114" width="240" height="26" as="geometry" />
        </mxCell>
        <mxCell id="hvJ3UXX3cbDrTFkvKnQH-31" value="Sign Up with Phone" style="strokeWidth=2;html=1;shape=mxgraph.flowchart.start_2;whiteSpace=wrap;fillColor=#f5f5f5;strokeColor=#666666;fontColor=#333333;" parent="1" vertex="1">
          <mxGeometry x="370" y="500" width="100" height="100" as="geometry" />
        </mxCell>
        <mxCell id="hvJ3UXX3cbDrTFkvKnQH-41" value="" style="edgeStyle=orthogonalEdgeStyle;rounded=0;orthogonalLoop=1;jettySize=auto;html=1;" parent="1" source="hvJ3UXX3cbDrTFkvKnQH-39" target="hvJ3UXX3cbDrTFkvKnQH-40" edge="1">
          <mxGeometry relative="1" as="geometry" />
        </mxCell>
        <mxCell id="hvJ3UXX3cbDrTFkvKnQH-44" value="true" style="edgeLabel;html=1;align=center;verticalAlign=middle;resizable=0;points=[];fontStyle=1" parent="hvJ3UXX3cbDrTFkvKnQH-41" vertex="1" connectable="0">
          <mxGeometry x="-0.0544" y="-1" relative="1" as="geometry">
            <mxPoint as="offset" />
          </mxGeometry>
        </mxCell>
        <mxCell id="hvJ3UXX3cbDrTFkvKnQH-49" style="edgeStyle=orthogonalEdgeStyle;rounded=0;orthogonalLoop=1;jettySize=auto;html=1;exitX=0.5;exitY=1;exitDx=0;exitDy=0;exitPerimeter=0;entryX=0.5;entryY=0;entryDx=0;entryDy=0;entryPerimeter=0;" parent="1" source="hvJ3UXX3cbDrTFkvKnQH-39" target="hvJ3UXX3cbDrTFkvKnQH-48" edge="1">
          <mxGeometry relative="1" as="geometry" />
        </mxCell>
        <mxCell id="hvJ3UXX3cbDrTFkvKnQH-39" value="roomCount &amp;gt; 0?" style="strokeWidth=2;html=1;shape=mxgraph.flowchart.decision;whiteSpace=wrap;fillColor=#f8cecc;strokeColor=#b85450;" parent="1" vertex="1">
          <mxGeometry x="820" y="240" width="100" height="100" as="geometry" />
        </mxCell>
        <mxCell id="hvJ3UXX3cbDrTFkvKnQH-43" style="edgeStyle=orthogonalEdgeStyle;rounded=0;orthogonalLoop=1;jettySize=auto;html=1;exitX=1;exitY=0.5;exitDx=0;exitDy=0;exitPerimeter=0;entryX=0;entryY=0.5;entryDx=0;entryDy=0;entryPerimeter=0;" parent="1" source="hvJ3UXX3cbDrTFkvKnQH-40" target="hvJ3UXX3cbDrTFkvKnQH-42" edge="1">
          <mxGeometry relative="1" as="geometry" />
        </mxCell>
        <mxCell id="hvJ3UXX3cbDrTFkvKnQH-52" style="edgeStyle=orthogonalEdgeStyle;rounded=0;orthogonalLoop=1;jettySize=auto;html=1;exitX=0.5;exitY=1;exitDx=0;exitDy=0;exitPerimeter=0;entryX=0.5;entryY=0;entryDx=0;entryDy=0;entryPerimeter=0;" parent="1" source="hvJ3UXX3cbDrTFkvKnQH-40" target="hvJ3UXX3cbDrTFkvKnQH-51" edge="1">
          <mxGeometry relative="1" as="geometry" />
        </mxCell>
        <mxCell id="hvJ3UXX3cbDrTFkvKnQH-40" value="roomCount = 1?" style="strokeWidth=2;html=1;shape=mxgraph.flowchart.decision;whiteSpace=wrap;fillColor=#f8cecc;strokeColor=#b85450;" parent="1" vertex="1">
          <mxGeometry x="1020" y="240" width="100" height="100" as="geometry" />
        </mxCell>
        <mxCell id="hvJ3UXX3cbDrTFkvKnQH-42" value="Redirect to Room" style="strokeWidth=2;html=1;shape=mxgraph.flowchart.start_2;whiteSpace=wrap;fillColor=#d5e8d4;strokeColor=#82b366;" parent="1" vertex="1">
          <mxGeometry x="1220" y="240" width="100" height="100" as="geometry" />
        </mxCell>
        <mxCell id="hvJ3UXX3cbDrTFkvKnQH-46" value="OTP Verification" style="strokeWidth=2;html=1;shape=mxgraph.flowchart.start_2;whiteSpace=wrap;fillColor=#dae8fc;strokeColor=#6c8ebf;" parent="1" vertex="1">
          <mxGeometry x="610" y="500" width="100" height="100" as="geometry" />
        </mxCell>
        <mxCell id="hvJ3UXX3cbDrTFkvKnQH-48" value="Create Room" style="strokeWidth=2;html=1;shape=mxgraph.flowchart.start_2;whiteSpace=wrap;fillColor=#f5f5f5;strokeColor=#666666;fontColor=#333333;" parent="1" vertex="1">
          <mxGeometry x="820" y="500" width="100" height="100" as="geometry" />
        </mxCell>
        <mxCell id="hvJ3UXX3cbDrTFkvKnQH-51" value="Pick Room from List" style="strokeWidth=2;html=1;shape=mxgraph.flowchart.start_2;whiteSpace=wrap;fillColor=#f5f5f5;strokeColor=#666666;fontColor=#333333;" parent="1" vertex="1">
          <mxGeometry x="1020" y="500" width="100" height="100" as="geometry" />
        </mxCell>
        <mxCell id="QYn_qW1uLwdrdWpBBY2R-3" style="edgeStyle=orthogonalEdgeStyle;rounded=0;orthogonalLoop=1;jettySize=auto;html=1;entryX=0;entryY=0.5;entryDx=0;entryDy=0;entryPerimeter=0;" edge="1" parent="1" target="QYn_qW1uLwdrdWpBBY2R-2">
          <mxGeometry relative="1" as="geometry">
            <mxPoint x="160" y="780" as="sourcePoint" />
          </mxGeometry>
        </mxCell>
        <mxCell id="QYn_qW1uLwdrdWpBBY2R-1" value="Actor" style="shape=umlActor;verticalLabelPosition=bottom;labelBackgroundColor=#ffffff;verticalAlign=top;html=1;outlineConnect=0;fillColor=#f5f5f5;strokeColor=#666666;fontColor=#333333;" vertex="1" parent="1">
          <mxGeometry x="120" y="750" width="30" height="60" as="geometry" />
        </mxCell>
        <mxCell id="QYn_qW1uLwdrdWpBBY2R-9" style="edgeStyle=orthogonalEdgeStyle;rounded=0;orthogonalLoop=1;jettySize=auto;html=1;exitX=1;exitY=0.5;exitDx=0;exitDy=0;exitPerimeter=0;entryX=0;entryY=0.5;entryDx=0;entryDy=0;entryPerimeter=0;" edge="1" parent="1" source="QYn_qW1uLwdrdWpBBY2R-2" target="QYn_qW1uLwdrdWpBBY2R-4">
          <mxGeometry relative="1" as="geometry" />
        </mxCell>
        <mxCell id="QYn_qW1uLwdrdWpBBY2R-2" value="Join Meeting" style="strokeWidth=2;html=1;shape=mxgraph.flowchart.start_2;whiteSpace=wrap;fillColor=#f5f5f5;strokeColor=#666666;fontColor=#333333;" vertex="1" parent="1">
          <mxGeometry x="250" y="730" width="100" height="100" as="geometry" />
        </mxCell>
        <mxCell id="QYn_qW1uLwdrdWpBBY2R-6" value="" style="edgeStyle=orthogonalEdgeStyle;rounded=0;orthogonalLoop=1;jettySize=auto;html=1;" edge="1" parent="1" source="QYn_qW1uLwdrdWpBBY2R-4" target="QYn_qW1uLwdrdWpBBY2R-5">
          <mxGeometry relative="1" as="geometry" />
        </mxCell>
        <mxCell id="QYn_qW1uLwdrdWpBBY2R-11" value="found" style="edgeLabel;html=1;align=center;verticalAlign=middle;resizable=0;points=[];fontStyle=1" vertex="1" connectable="0" parent="QYn_qW1uLwdrdWpBBY2R-6">
          <mxGeometry x="-0.1857" relative="1" as="geometry">
            <mxPoint x="6" as="offset" />
          </mxGeometry>
        </mxCell>
        <mxCell id="QYn_qW1uLwdrdWpBBY2R-16" style="edgeStyle=orthogonalEdgeStyle;rounded=0;orthogonalLoop=1;jettySize=auto;html=1;exitX=0.5;exitY=1;exitDx=0;exitDy=0;exitPerimeter=0;entryX=0.5;entryY=0;entryDx=0;entryDy=0;entryPerimeter=0;" edge="1" parent="1" source="QYn_qW1uLwdrdWpBBY2R-4" target="QYn_qW1uLwdrdWpBBY2R-15">
          <mxGeometry relative="1" as="geometry" />
        </mxCell>
        <mxCell id="QYn_qW1uLwdrdWpBBY2R-4" value="Check Number Profile" style="strokeWidth=2;html=1;shape=mxgraph.flowchart.decision;whiteSpace=wrap;fillColor=#f8cecc;strokeColor=#b85450;" vertex="1" parent="1">
          <mxGeometry x="430" y="730" width="100" height="100" as="geometry" />
        </mxCell>
        <mxCell id="QYn_qW1uLwdrdWpBBY2R-8" value="" style="edgeStyle=orthogonalEdgeStyle;rounded=0;orthogonalLoop=1;jettySize=auto;html=1;" edge="1" parent="1" source="QYn_qW1uLwdrdWpBBY2R-5" target="QYn_qW1uLwdrdWpBBY2R-7">
          <mxGeometry relative="1" as="geometry" />
        </mxCell>
        <mxCell id="QYn_qW1uLwdrdWpBBY2R-18" value="true" style="edgeLabel;html=1;align=center;verticalAlign=middle;resizable=0;points=[];fontStyle=1" vertex="1" connectable="0" parent="QYn_qW1uLwdrdWpBBY2R-8">
          <mxGeometry x="-0.2182" relative="1" as="geometry">
            <mxPoint x="8" as="offset" />
          </mxGeometry>
        </mxCell>
        <mxCell id="QYn_qW1uLwdrdWpBBY2R-26" style="edgeStyle=orthogonalEdgeStyle;rounded=0;orthogonalLoop=1;jettySize=auto;html=1;exitX=0.5;exitY=1;exitDx=0;exitDy=0;exitPerimeter=0;entryX=0.5;entryY=0;entryDx=0;entryDy=0;entryPerimeter=0;" edge="1" parent="1" source="QYn_qW1uLwdrdWpBBY2R-5" target="QYn_qW1uLwdrdWpBBY2R-25">
          <mxGeometry relative="1" as="geometry" />
        </mxCell>
        <mxCell id="QYn_qW1uLwdrdWpBBY2R-27" value="false" style="edgeLabel;html=1;align=center;verticalAlign=middle;resizable=0;points=[];fontStyle=1" vertex="1" connectable="0" parent="QYn_qW1uLwdrdWpBBY2R-26">
          <mxGeometry x="-0.2762" y="1" relative="1" as="geometry">
            <mxPoint y="8" as="offset" />
          </mxGeometry>
        </mxCell>
        <mxCell id="QYn_qW1uLwdrdWpBBY2R-5" value="invitations &amp;gt; 0 ?" style="strokeWidth=2;html=1;shape=mxgraph.flowchart.decision;whiteSpace=wrap;fillColor=#f8cecc;strokeColor=#b85450;" vertex="1" parent="1">
          <mxGeometry x="670" y="730" width="100" height="100" as="geometry" />
        </mxCell>
        <mxCell id="QYn_qW1uLwdrdWpBBY2R-20" style="edgeStyle=orthogonalEdgeStyle;rounded=0;orthogonalLoop=1;jettySize=auto;html=1;exitX=1;exitY=0.5;exitDx=0;exitDy=0;exitPerimeter=0;entryX=0;entryY=0.5;entryDx=0;entryDy=0;entryPerimeter=0;" edge="1" parent="1" source="QYn_qW1uLwdrdWpBBY2R-7" target="QYn_qW1uLwdrdWpBBY2R-19">
          <mxGeometry relative="1" as="geometry" />
        </mxCell>
        <mxCell id="QYn_qW1uLwdrdWpBBY2R-21" value="true" style="edgeLabel;html=1;align=center;verticalAlign=middle;resizable=0;points=[];fontStyle=1" vertex="1" connectable="0" parent="QYn_qW1uLwdrdWpBBY2R-20">
          <mxGeometry x="-0.3133" y="2" relative="1" as="geometry">
            <mxPoint x="13" y="1" as="offset" />
          </mxGeometry>
        </mxCell>
        <mxCell id="QYn_qW1uLwdrdWpBBY2R-29" style="edgeStyle=orthogonalEdgeStyle;rounded=0;orthogonalLoop=1;jettySize=auto;html=1;exitX=0.5;exitY=1;exitDx=0;exitDy=0;exitPerimeter=0;entryX=0.5;entryY=0;entryDx=0;entryDy=0;entryPerimeter=0;" edge="1" parent="1" source="QYn_qW1uLwdrdWpBBY2R-7" target="QYn_qW1uLwdrdWpBBY2R-28">
          <mxGeometry relative="1" as="geometry" />
        </mxCell>
        <mxCell id="QYn_qW1uLwdrdWpBBY2R-30" value="false" style="edgeLabel;html=1;align=center;verticalAlign=middle;resizable=0;points=[];fontStyle=1" vertex="1" connectable="0" parent="QYn_qW1uLwdrdWpBBY2R-29">
          <mxGeometry x="-0.0844" y="-1" relative="1" as="geometry">
            <mxPoint y="-3" as="offset" />
          </mxGeometry>
        </mxCell>
        <mxCell id="QYn_qW1uLwdrdWpBBY2R-7" value="invitations = 1&amp;nbsp;" style="strokeWidth=2;html=1;shape=mxgraph.flowchart.decision;whiteSpace=wrap;fillColor=#f8cecc;strokeColor=#b85450;" vertex="1" parent="1">
          <mxGeometry x="880" y="730" width="100" height="100" as="geometry" />
        </mxCell>
        <mxCell id="QYn_qW1uLwdrdWpBBY2R-10" value="+ options : PotkalProfileSettings" style="text;strokeColor=none;fillColor=none;align=left;verticalAlign=top;spacingLeft=4;spacingRight=4;overflow=hidden;rotatable=0;points=[[0,0.5],[1,0.5]];portConstraint=eastwest;" vertex="1" parent="1">
          <mxGeometry x="460" y="140" width="240" height="26" as="geometry" />
        </mxCell>
        <mxCell id="QYn_qW1uLwdrdWpBBY2R-17" style="edgeStyle=orthogonalEdgeStyle;rounded=0;orthogonalLoop=1;jettySize=auto;html=1;exitX=0;exitY=0.5;exitDx=0;exitDy=0;exitPerimeter=0;entryX=0.5;entryY=1;entryDx=0;entryDy=0;entryPerimeter=0;" edge="1" parent="1" source="QYn_qW1uLwdrdWpBBY2R-15" target="QYn_qW1uLwdrdWpBBY2R-2">
          <mxGeometry relative="1" as="geometry" />
        </mxCell>
        <mxCell id="QYn_qW1uLwdrdWpBBY2R-15" value="Not Found" style="verticalLabelPosition=bottom;verticalAlign=top;html=1;shape=mxgraph.flowchart.on-page_reference;" vertex="1" parent="1">
          <mxGeometry x="450" y="1000" width="60" height="60" as="geometry" />
        </mxCell>
        <mxCell id="QYn_qW1uLwdrdWpBBY2R-19" value="Redirect to Room" style="strokeWidth=2;html=1;shape=mxgraph.flowchart.start_2;whiteSpace=wrap;fillColor=#d5e8d4;strokeColor=#82b366;" vertex="1" parent="1">
          <mxGeometry x="1080" y="730" width="100" height="100" as="geometry" />
        </mxCell>
        <mxCell id="QYn_qW1uLwdrdWpBBY2R-25" value="Nothing to Join" style="strokeWidth=2;html=1;shape=mxgraph.flowchart.start_2;whiteSpace=wrap;fillColor=#f5f5f5;strokeColor=#666666;fontColor=#333333;" vertex="1" parent="1">
          <mxGeometry x="670" y="980" width="100" height="100" as="geometry" />
        </mxCell>
        <mxCell id="QYn_qW1uLwdrdWpBBY2R-28" value="Pick Room from List" style="strokeWidth=2;html=1;shape=mxgraph.flowchart.start_2;whiteSpace=wrap;fillColor=#f5f5f5;strokeColor=#666666;fontColor=#333333;" vertex="1" parent="1">
          <mxGeometry x="880" y="980" width="100" height="100" as="geometry" />
        </mxCell>
        <mxCell id="QYn_qW1uLwdrdWpBBY2R-31" value="USER CREATES A MEETING" style="text;html=1;align=center;verticalAlign=middle;resizable=0;points=[];autosize=1;fontStyle=1" vertex="1" parent="1">
          <mxGeometry x="45" y="190" width="180" height="20" as="geometry" />
        </mxCell>
        <mxCell id="QYn_qW1uLwdrdWpBBY2R-34" value="USER JOINING A MEETING VIA PHONE NUMBER" style="text;html=1;align=center;verticalAlign=middle;resizable=0;points=[];autosize=1;fontStyle=1" vertex="1" parent="1">
          <mxGeometry y="700" width="300" height="20" as="geometry" />
        </mxCell>
        <mxCell id="QYn_qW1uLwdrdWpBBY2R-35" value="User can join a meeting via multiple ways :&amp;nbsp;&lt;br&gt;1. Simplest : via a specific URL for the room&lt;br&gt;2. Secure : via a specific URL for the meeting with UUID&lt;br&gt;3. Fastest : Pick meeting to join from a list.&lt;br&gt;&lt;br&gt;In our app, user accounts and data will be based on phone numbers as identifiers to drive real usage and maintain contact with users as well as prevent spam, impersonation, unwanted activities in meetings, etc.&lt;br&gt;&lt;br&gt;Using phone numbers achieves better security for users and meetings.&amp;nbsp;&lt;br&gt;1. Require OTP by default on anyone who wants to become a host : to ensure it&#39;s a real user&lt;br&gt;2. Optional : Require OTP for joining meetings. An option specified by host when creating the meeting ensures identity by 2FA, using unique links and OTP codes&lt;br&gt;&lt;br&gt;In order to drive collection of numbers, we encourage users to invite people via phone numbers to meetings, sending an SMS with details to join.&lt;br&gt;&lt;br&gt;The phone number of user is then associated with a settings profile in app local storage to deliver a better user experience so user can see meetings to join and rooms to create meetings from without having to log in.&amp;nbsp;&lt;br&gt;&lt;br&gt;For enhanced security, the app can leverage OTP for logging in to fetch user data like list of rooms and invites, removing the need for passwords and other means of account management.&lt;br&gt;&lt;br&gt;As users are spending more time with the app, the need for unique links and rooms,etc. will be mostly used by new/external users" style="shape=note;whiteSpace=wrap;html=1;size=14;verticalAlign=top;align=left;spacingTop=-6;" vertex="1" parent="1">
          <mxGeometry x="30" y="860" width="240" height="660" as="geometry" />
        </mxCell>
      </root>
    </mxGraphModel>
  </diagram>
</mxfile>
